# xmcd
#
# Track frame offsets:
#	150
#	11943
#	23068
#	37481
#	46216
#	59055
#	66180
#	80543
#	89155
#	99926
#	114602
#	127083
#	142115
#	144461
#	157204
#	168945
#	184350
#	194025
#
# Disc length: 2734 seconds
#
# Revision: 0
# Processed by: cddbd v1.4PL0 Copyright (c) Steve Scherf et al.
# Submitted via: audiograbber 1.80
#
DISCID=1e0aac12
DTITLE=dick curless - Hard, Hard Traveling Man disc 4
DYEAR=1900
DGENRE=
TTITLE0=Cottage In The Pines 
TTITLE1=Down By The Riverside 
TTITLE2=Heart Talk 
TTITLE3=My Side Of The Night 
TTITLE4=Then I'll Get Over You 
TTITLE5=Cupid's Arrow 
TTITLE6=When Dad Was Around 
TTITLE7=Rocky Mountain Queen 
TTITLE8=So Little And Lovely 
TTITLE9=Memories, An Old Picture And A Ring 
TTITLE10=His Mountain 
TTITLE11=Nobody 
TTITLE12=Steel Rails 
TTITLE13=Steel Rails 
TTITLE14=In The Middle Of A Tear Drop 
TTITLE15=Changin' Times 
TTITLE16=Remember Me 
TTITLE17=Remember Me 
EXTD=
EXTT0=
EXTT1=
EXTT2=
EXTT3=
EXTT4=
EXTT5=
EXTT6=
EXTT7=
EXTT8=
EXTT9=
EXTT10=
EXTT11=
EXTT12=
EXTT13=
EXTT14=
EXTT15=
EXTT16=
EXTT17=
PLAYORDER=
